<svg width="32" height="32" xmlns="http://www.w3.org/2000/svg" fill="none">
 <g>
  <title>Layer 1</title>
  <g id="svg_19">
   <path d="m8.30886,25.91312c1.47344,0 2.66794,-1.1944 2.66794,-2.6678c0,-1.4735 -1.1945,-2.668 -2.66794,-2.668c-1.47344,0 -2.66789,1.1945 -2.66789,2.668c0,1.4734 1.19445,2.6678 2.66789,2.6678z" stroke="#0AAD0A" stroke-width="1.28276" stroke-miterlimit="10" stroke-linecap="round" id="svg_1"/>
   <path d="m7.16147,10.24077l16.13853,0" stroke="#0AAD0A" stroke-width="1.28276" stroke-miterlimit="10" stroke-linecap="round" id="svg_2"/>
   <path d="m8.57432,13.46842l14.02028,0" stroke="#0AAD0A" stroke-width="1.28276" stroke-miterlimit="10" stroke-linecap="round" id="svg_3"/>
   <path d="m7.84653,20.57632l10.45267,0c1.1448,0 2.1646,-0.7273 2.5367,-1.8106l4.308,-12.5335c0.3722,-1.08329 1.391,-1.81054 2.5368,-1.81054l3.1339,0" stroke="#0AAD0A" stroke-width="1.28276" stroke-miterlimit="10" stroke-linecap="round" id="svg_4"/>
   <path d="m8.30899,23.63042c0.2128,0 0.38531,-0.1725 0.38531,-0.3852c0,-0.2129 -0.17251,-0.3853 -0.38531,-0.3853c-0.2128,0 -0.38531,0.1724 -0.38531,0.3853c0,0.2127 0.17251,0.3852 0.38531,0.3852z" stroke="#0AAD0A" stroke-width="1.06897" stroke-miterlimit="10" stroke-linecap="round" id="svg_5"/>
   <path d="m18.0076,25.91312c1.4734,0 2.6678,-1.1944 2.6678,-2.6678c0,-1.4735 -1.1944,-2.668 -2.6678,-2.668c-1.4735,0 -2.6679,1.1945 -2.6679,2.668c0,1.4734 1.1944,2.6678 2.6679,2.6678z" stroke="#0AAD0A" stroke-width="1.28276" stroke-miterlimit="10" stroke-linecap="round" id="svg_6"/>
   <path d="m18.0077,23.63042c0.2127,0 0.3853,-0.1725 0.3853,-0.3853c0,-0.2128 -0.1726,-0.3853 -0.3853,-0.3853c-0.2128,0 -0.3853,0.1725 -0.3853,0.3853c0,0.2128 0.1725,0.3853 0.3853,0.3853z" stroke="#0AAD0A" stroke-width="1.06897" stroke-miterlimit="10" stroke-linecap="round" id="svg_7"/>
   <path d="m21.3728,17.20332l-14.03949,0c-0.47003,0 -0.88256,-0.3259 -1.01167,-0.8001l-2.38143,-8.72311c-0.11903,-0.43498 0.19264,-0.8689 0.62435,-0.8689l17.99844,0" stroke="#0AAD0A" stroke-width="1.28276" stroke-miterlimit="10" stroke-linecap="round" id="svg_8"/>
   <path d="m1.1854,27.57832c0,0 10.26,-3.4718 24.1058,0" stroke="#0AAD0A" stroke-width="1.28276" stroke-miterlimit="10" stroke-linecap="round" id="svg_9"/>
  </g>
  <path id="svg_14" d="m29.33935,9.73533l-2.78074,-2.88484l2.78023,-2.88484l-1.42928,-1.48384l-2.78074,2.88484l-2.78074,-2.88484l-1.42928,1.48384l2.78023,2.88484l-2.78074,2.88484l1.43029,1.48332l2.78023,-2.88484l2.78023,2.88484" stroke="#000" fill="#ff0400"/>
 </g>

</svg>